<?xml version="1.0" encoding="utf-8"?>
<!-- Generator: Adobe Illustrator 23.0.0, SVG Export Plug-In . SVG Version: 6.00 Build 0)  -->
<svg version="1.1" id="Layer_1" xmlns="http://www.w3.org/2000/svg" xmlns:xlink="http://www.w3.org/1999/xlink" x="0px" y="0px"
	 viewBox="0 0 210.3 363.2" style="enable-background:new 0 0 210.3 363.2;" xml:space="preserve">
<style type="text/css">
	.st0{fill:#EFBA35;}
	.st1{fill:url(#SVGID_1_);}
	.st2{fill:#231F20;}
</style>
<path class="st0" d="M107.3,206.2l-2.8-58.8l-1.3-0.5c-9.9,1.7-21.6,2.1-35.7,0.9c-9.9-17.1-21.5-52.1,2.6-71.7
	c23.2-18.9,58.4-15.3,81.1-15.1l30.2-31.9c-18.5-18.3-45-28.7-76.5-28.7C42.7,0.6-0.1,41.1-0.1,104c0,62.9,42.9,103.5,105.1,103.5
	c0.3,0,0.6,0,1,0L107.3,206.2z"/>
<linearGradient id="SVGID_1_" gradientUnits="userSpaceOnUse" x1="176.0674" y1="344.6998" x2="152.5785" y2="211.4879" gradientTransform="matrix(1 0 0 -1 0 366)">
	<stop  offset="0.1538" style="stop-color:#FF4F3F"/>
	<stop  offset="1" style="stop-color:#EFBA35"/>
</linearGradient>
<path class="st1" d="M210.1,104c0-31.2-10.5-56.9-28.7-74.8l-30.3,31.9c0,0,0.1,0,0.1,0c3.6,19.6,5.8,41.9-5.1,59.3
	c-6.9,11.1-19.7,22.4-42.9,26.5l2.8,60.6C167.7,207.1,210.1,166.6,210.1,104z"/>
<g>
	<polygon class="st2" points="124.8,254.8 113.9,254.8 113.9,261.5 124.8,261.5 124.8,278.2 132,278.2 132,238.5 124.8,238.5 	"/>
	<polygon class="st2" points="57,254.8 46.1,254.8 46.1,261.5 57,261.5 57,278.2 64.1,278.2 64.1,238.5 57,238.5 	"/>
	<polygon class="st2" points="177.5,271.1 177.5,277.6 177.5,277.8 192.2,277.8 192.2,291.3 199.3,291.3 199.3,238.5 192.2,238.5 
		192.2,271.1 	"/>
	<polygon class="st2" points="177.2,304.7 177.2,291 170,291 170,311.3 199.9,311.3 199.9,304.7 	"/>
	<path class="st2" d="M106.3,273.4h8.2c-5-7.9-9.3-16.3-12.7-25.1h10.9v-6.6H77.8v6.6h12c-3.4,8.8-7.7,17.2-12.7,25.1h8.2
		c4.1-6.7,7.6-13.8,10.5-21.2C98.7,259.6,102.2,266.8,106.3,273.4z"/>
	<path class="st2" d="M36.9,273.4h8.1c-4.4-7-8.3-14.4-11.5-22.1h11.4v-6.7H31.2v-8.2h-7.4v8.2H10.1v6.7h11.5
		c-3.2,7.7-7.1,15.2-11.5,22.2h8.1c3.6-5.8,6.7-12,9.4-18.4C30.3,261.4,33.4,267.6,36.9,273.4z"/>
	<path class="st2" d="M144.4,271.1v6.6h18.6c-2.2,6.1-6.3,14.1-11.8,23.2h8.4c5.5-9.4,10.1-19.3,13.6-29.8H144.4z"/>
	<path class="st2" d="M45.4,280.9c-10.2,0-17.2,6.4-17.2,16.4c0,10,7,16.4,17.2,16.4s17.2-6.4,17.2-16.4
		C62.6,287.3,55.6,280.9,45.4,280.9z M45.4,307c-5.9,0-10-3.8-10-9.7s4.1-9.7,10-9.7c5.9,0,10,3.8,10,9.7
		C55.3,303.3,51.3,307,45.4,307z"/>
	<path class="st2" d="M113.3,280.9c-10.2,0-17.2,6.4-17.2,16.4c0,10,7,16.4,17.2,16.4c10.2,0,17.2-6.4,17.2-16.4
		C130.5,287.3,123.5,280.9,113.3,280.9z M113.3,307c-5.9,0-10-3.8-10-9.7s4.1-9.7,10-9.7c5.9,0,10,3.8,10,9.7S119.2,307,113.3,307z"
		/>
	<path class="st2" d="M164.3,266.4c9,0,15.3-5.7,15.3-14.6c0-8.9-6.2-14.6-15.3-14.6S149,243,149,251.9
		C149,260.7,155.2,266.4,164.3,266.4z M164.3,243.8c4.9,0,8.3,3.2,8.3,8.1c0,4.9-3.4,8.1-8.3,8.1c-4.9,0-8.3-3.2-8.3-8.1
		C155.9,246.9,159.3,243.8,164.3,243.8z"/>
</g>
<g>
	<path class="st2" d="M29.5,355.6c0,0,3.2,3.4,8.2,3.4c2.4,0,4.8-1.3,4.8-3.6c0-5.3-14.8-4.2-14.8-13.6c0-5.2,4.7-8.2,10.4-8.2
		c6.3,0,9.3,3.2,9.3,3.2l-2.2,4.1c0,0-2.6-2.6-7.1-2.6c-2.4,0-4.7,1-4.7,3.5c0,5.2,14.8,4,14.8,13.5c0,4.8-4.1,8.4-10.4,8.4
		c-7,0-10.9-4.2-10.9-4.2L29.5,355.6z"/>
	<path class="st2" d="M57.4,334.3h5.3v3.8c0,1.1-0.1,2.1-0.1,2.1h0.1c1.4-3.4,5.4-6.6,9.9-6.6c4.8,0,7.7,2.2,8.6,6.5h0.1
		c1.6-3.5,5.6-6.5,10.2-6.5c6.5,0,9.5,3.7,9.5,11v18.4h-5.5v-17.2c0-4-0.8-7.2-5.1-7.2c-4,0-7,3.4-8.1,7.3c-0.3,1.2-0.4,2.5-0.4,4
		v13.1h-5.5v-17.2c0-3.7-0.6-7.2-5-7.2c-4.2,0-7.2,3.5-8.2,7.5c-0.3,1.1-0.3,2.4-0.3,3.8v13.1h-5.5L57.4,334.3L57.4,334.3z"/>
	<path class="st2" d="M127.1,345.1h1.3v-0.5c0-4.7-2.7-6.3-6.3-6.3c-4.4,0-8,2.8-8,2.8l-2.3-4c0,0,4.1-3.4,10.7-3.4
		c7.3,0,11.4,4,11.4,11.2v18.2h-5.1v-2.7c0-1.3,0.1-2.3,0.1-2.3h-0.1c0,0-2.3,5.7-9.2,5.7c-4.9,0-9.8-3-9.8-8.7
		C109.8,345.5,122.3,345.1,127.1,345.1z M120.8,359.3c4.7,0,7.7-4.9,7.7-9.1v-0.9H127c-4.1,0-11.6,0.3-11.6,5.4
		C115.4,357,117.2,359.3,120.8,359.3z"/>
	<path class="st2" d="M144.9,334.3h5.3v5c0,1.2-0.1,2.1-0.1,2.1h0.1c1.3-4.2,4.7-7.5,9.1-7.5c0.7,0,1.4,0.1,1.4,0.1v5.4
		c0,0-0.7-0.2-1.6-0.2c-3.5,0-6.8,2.5-8.1,6.8c-0.5,1.6-0.7,3.4-0.7,5.2v11.8h-5.5L144.9,334.3L144.9,334.3z"/>
	<path class="st2" d="M170.3,339.2h-3.8v-4.4h3.9v-8.3h5.3v8.3h6.9v4.4h-6.9v12.8c0,5.7,4,6.5,6.1,6.5c0.8,0,1.3-0.1,1.3-0.1v4.9
		c0,0-0.8,0.1-1.9,0.1c-3.7,0-11-1.1-11-10.7L170.3,339.2L170.3,339.2z"/>
</g>
</svg>
